<svg xmlns="http://www.w3.org/2000/svg" xmlns:xlink="http://www.w3.org/1999/xlink" width="40" zoomAndPan="magnify" viewBox="0 0 30 30.000001" height="40" preserveAspectRatio="xMidYMid meet" version="1.0"><defs><g/><clipPath id="caf74e200a"><path d="M 0.109375 0.0585938 L 4 0.0585938 L 4 10.277344 L 0.109375 10.277344 Z M 0.109375 0.0585938 " clip-rule="nonzero"/></clipPath><clipPath id="300d2897ff"><path d="M 22 0.0585938 L 25.890625 0.0585938 L 25.890625 10.277344 L 22 10.277344 Z M 22 0.0585938 " clip-rule="nonzero"/></clipPath><clipPath id="8c03667962"><rect x="0" width="26" y="0" height="11"/></clipPath></defs><g transform="matrix(1, 0, 0, 1, 2, 9)"><g clip-path="url(#8c03667962)"><g clip-path="url(#caf74e200a)"><g fill="#fff" fill-opacity="1"><g transform="translate(0.322877, 8.132044)"><g><path d="M 3.296875 1.15625 L 3.296875 1.890625 C 2.816406 1.878906 2.429688 1.804688 2.140625 1.671875 C 1.847656 1.546875 1.632812 1.332031 1.5 1.03125 C 1.375 0.726562 1.3125 0.328125 1.3125 -0.171875 L 1.3125 -1.15625 C 1.3125 -1.570312 1.234375 -1.890625 1.078125 -2.109375 C 0.929688 -2.335938 0.691406 -2.488281 0.359375 -2.5625 L 0.359375 -3.28125 C 0.703125 -3.363281 0.945312 -3.519531 1.09375 -3.75 C 1.238281 -3.976562 1.3125 -4.289062 1.3125 -4.6875 L 1.3125 -5.65625 C 1.3125 -6.164062 1.375 -6.570312 1.5 -6.875 C 1.632812 -7.175781 1.847656 -7.390625 2.140625 -7.515625 C 2.429688 -7.648438 2.816406 -7.71875 3.296875 -7.71875 L 3.296875 -7 C 3.066406 -6.976562 2.878906 -6.941406 2.734375 -6.890625 C 2.597656 -6.847656 2.492188 -6.773438 2.421875 -6.671875 C 2.347656 -6.578125 2.296875 -6.441406 2.265625 -6.265625 C 2.242188 -6.097656 2.234375 -5.878906 2.234375 -5.609375 L 2.234375 -4.515625 C 2.234375 -4.128906 2.15625 -3.800781 2 -3.53125 C 1.84375 -3.269531 1.640625 -3.066406 1.390625 -2.921875 C 1.671875 -2.765625 1.878906 -2.539062 2.015625 -2.25 C 2.160156 -1.96875 2.234375 -1.65625 2.234375 -1.3125 L 2.234375 -0.265625 C 2.234375 0.00390625 2.242188 0.226562 2.265625 0.40625 C 2.285156 0.59375 2.332031 0.734375 2.40625 0.828125 C 2.476562 0.929688 2.585938 1.003906 2.734375 1.046875 C 2.878906 1.097656 3.066406 1.132812 3.296875 1.15625 Z M 3.296875 1.15625 "/></g></g></g></g><g fill="#fff" fill-opacity="1"><g transform="translate(4.027347, 8.132044)"><g><path d="M 1.890625 0 L 0.96875 0 L 0.96875 -7.125 L 1.765625 -7.125 L 4.484375 -3.53125 L 7.1875 -7.125 L 8 -7.125 L 8 0 L 7.078125 0 L 7.078125 -5.625 L 4.609375 -2.34375 L 4.34375 -2.34375 L 1.890625 -5.640625 Z M 1.890625 0 "/></g></g></g><g fill="#fff" fill-opacity="1"><g transform="translate(12.997715, 8.132044)"><g><path d="M 1.890625 0 L 0.96875 0 L 0.96875 -7.125 L 1.765625 -7.125 L 4.484375 -3.53125 L 7.1875 -7.125 L 8 -7.125 L 8 0 L 7.078125 0 L 7.078125 -5.625 L 4.609375 -2.34375 L 4.34375 -2.34375 L 1.890625 -5.640625 Z M 1.890625 0 "/></g></g></g><g clip-path="url(#300d2897ff)"><g fill="#fff" fill-opacity="1"><g transform="translate(21.968082, 8.132044)"><g><path d="M 0.40625 1.890625 L 0.40625 1.15625 C 0.644531 1.132812 0.832031 1.097656 0.96875 1.046875 C 1.113281 1.003906 1.222656 0.929688 1.296875 0.828125 C 1.367188 0.734375 1.414062 0.59375 1.4375 0.40625 C 1.46875 0.226562 1.484375 0.00390625 1.484375 -0.265625 L 1.484375 -1.3125 C 1.484375 -1.65625 1.550781 -1.96875 1.6875 -2.25 C 1.820312 -2.539062 2.03125 -2.765625 2.3125 -2.921875 C 2.0625 -3.066406 1.859375 -3.269531 1.703125 -3.53125 C 1.554688 -3.800781 1.484375 -4.128906 1.484375 -4.515625 L 1.484375 -5.609375 C 1.484375 -5.878906 1.46875 -6.097656 1.4375 -6.265625 C 1.414062 -6.441406 1.363281 -6.578125 1.28125 -6.671875 C 1.207031 -6.773438 1.097656 -6.847656 0.953125 -6.890625 C 0.816406 -6.941406 0.632812 -6.976562 0.40625 -7 L 0.40625 -7.71875 C 0.882812 -7.71875 1.269531 -7.648438 1.5625 -7.515625 C 1.851562 -7.390625 2.0625 -7.175781 2.1875 -6.875 C 2.320312 -6.570312 2.390625 -6.164062 2.390625 -5.65625 L 2.390625 -4.6875 C 2.390625 -4.289062 2.460938 -3.976562 2.609375 -3.75 C 2.753906 -3.519531 3 -3.363281 3.34375 -3.28125 L 3.34375 -2.5625 C 3.007812 -2.488281 2.765625 -2.335938 2.609375 -2.109375 C 2.460938 -1.890625 2.390625 -1.570312 2.390625 -1.15625 L 2.390625 -0.171875 C 2.390625 0.328125 2.320312 0.726562 2.1875 1.03125 C 2.0625 1.332031 1.851562 1.546875 1.5625 1.671875 C 1.269531 1.804688 0.882812 1.878906 0.40625 1.890625 Z M 0.40625 1.890625 "/></g></g></g></g></g></g></svg>
